<?xml version="1.0" encoding="utf-8"?>
<!-- Generator: Adobe Illustrator 23.0.2, SVG Export Plug-In . SVG Version: 6.00 Build 0)  -->
<svg version="1.1" id="Layer_1" xmlns="http://www.w3.org/2000/svg" xmlns:xlink="http://www.w3.org/1999/xlink" x="0px" y="0px"
	 viewBox="0 0 425 927" style="enable-background:new 0 0 425 927;" xml:space="preserve">
<style type="text/css">
	.st0{opacity:0.15;fill:url(#SVGID_1_);enable-background:new    ;}
	.st1{fill:none;}
	.st2{opacity:0.2;}
	.st3{fill:#FFFFFF;}
	.st4{opacity:0.15;fill:url(#SVGID_2_);enable-background:new    ;}
	.st5{opacity:0.15;fill:url(#SVGID_3_);enable-background:new    ;}
	.st6{opacity:0.5;}
	.st7{font-family:'Roboto'; font-weight:300;}
	.st8{font-size:12px;}
	.st9{fill:url(#SVGID_4_);}
	.st10{fill:url(#SVGID_5_);}
	.st11{fill:none;stroke:url(#SVGID_6_);stroke-miterlimit:10;}
	.st12{fill:#CEB98E;}
	.st13{opacity:0.1;fill:url(#SVGID_7_);enable-background:new    ;}
	
		.st14{opacity:0.3;fill:none;stroke:url(#SVGID_8_);stroke-width:0.5;stroke-linecap:round;stroke-linejoin:round;stroke-miterlimit:10;enable-background:new    ;}
	.st15{fill:#C90100;}
	.st16{opacity:0.1;fill:url(#SVGID_9_);enable-background:new    ;}
	
		.st17{opacity:0.3;fill:none;stroke:url(#SVGID_10_);stroke-width:0.5;stroke-linecap:round;stroke-linejoin:round;stroke-miterlimit:10;enable-background:new    ;}
	
		.st18{opacity:0.5;fill:none;stroke:#FFFFFF;stroke-linecap:round;stroke-miterlimit:10;stroke-dasharray:0,2;enable-background:new    ;}
	.st19{fill:#B3B3B3;}
	.st20{font-family:'Roboto'; font-weight:700;}
	.st21{font-size:14px;}
	.st22{fill:#BBA67C;}
	.st23{opacity:5.000000e-02;fill:url(#SVGID_11_);enable-background:new    ;}
	.st24{opacity:0.1;fill:url(#SVGID_12_);enable-background:new    ;}
	.st25{opacity:0.1;enable-background:new    ;}
	.st26{fill:url(#SVGID_13_);}
	.st27{opacity:5.000000e-02;fill:url(#SVGID_14_);enable-background:new    ;}
	.st28{opacity:5.000000e-02;fill:url(#SVGID_15_);enable-background:new    ;}
	
		.st29{opacity:0.3;fill:none;stroke:url(#SVGID_16_);stroke-width:0.5;stroke-linecap:round;stroke-linejoin:round;stroke-miterlimit:10;enable-background:new    ;}
	.st30{opacity:0.3;enable-background:new    ;}
	.st31{fill:none;stroke:url(#SVGID_17_);stroke-width:0.5;stroke-linecap:round;stroke-linejoin:round;stroke-miterlimit:10;}
	.st32{opacity:5.000000e-02;fill:url(#SVGID_18_);enable-background:new    ;}
	.st33{opacity:0.8;fill:#110C0F;enable-background:new    ;}
	.st34{fill:url(#SVGID_19_);}
	.st35{fill:none;stroke:#FFFFFF;stroke-width:0.5;stroke-linecap:round;stroke-miterlimit:10;}
	.st36{opacity:0.5;fill:url(#SVGID_20_);enable-background:new    ;}
	.st37{fill:url(#SVGID_21_);}
	.st38{fill:url(#SVGID_22_);}
	.st39{fill:url(#SVGID_23_);}
	.st40{fill:url(#SVGID_24_);}
	.st41{fill:url(#SVGID_25_);}
	.st42{fill:url(#SVGID_26_);}
	.st43{fill:url(#SVGID_27_);}
	.st44{font-size:18px;}
	.st45{enable-background:new    ;}
	.st46{font-size:16px;}

	#light {
		opacity: 1;
	}

	@-webkit-keyframes lighting {
		0%   { opacity: 0; }
		100% { opacity: 1; }
	}
	@-moz-keyframes lighting {
		0%   { opacity: 0; }
		100% { opacity: 1; }
	}
	@-o-keyframes lighting {
		0%   { opacity: 0; }
		100% { opacity: 1; }
	}
	@keyframes lighting {
		0%   { opacity: 0; }
		100% { opacity: 1; }
	}
	.animate-light {
		-webkit-animation: lighting 2s infinite alternate;
    -moz-animation:    lighting 2s infinite alternate;
    -o-animation:      lighting 2s infinite alternate;
    animation:         lighting 2s infinite alternate;
	}
</style>
<image style="overflow:visible;enable-background:new    ;" width="850" height="1275" xlink:href="../images/woman-mobile-m.png"  transform="matrix(0.4707 0 0 0.4707 10.2621 209.8631)">
</image>
<linearGradient id="SVGID_1_" gradientUnits="userSpaceOnUse" x1="96.35" y1="2223.6001" x2="96.35" y2="2458.425" gradientTransform="matrix(1 0 0 -1 0 2818)">
	<stop  offset="0" style="stop-color:#FFFFFF"/>
	<stop  offset="0.1413" style="stop-color:#FFFFFF;stop-opacity:0.9435"/>
	<stop  offset="1" style="stop-color:#FFFFFF;stop-opacity:0.6"/>
</linearGradient>
<path class="st0" d="M162.3,370.1c0,0-0.9,21.5-24.6,53.1s-39,59.6-29.8,81.3c0,0-13.8,13.6-18.3,20.8c0,0-33.6,5.6-45.7,34.4
	c-12.2,28.8-13.5,34.7-13.5,34.7s9-61.4,23.7-87.4c22.9-40.6,19.9-32.4,54.5-68.6s47.9-44.6,41.4-68.8c0,0,3.7-9.3,6.2-10
	c1.4-0.4,1.8,4.1,4.3,5.6C161.3,365.9,161.1,369.1,162.3,370.1z"/>
<g>
	<path class="st1" d="M-444.8,564.7"/>
</g>
<g class="st2">
	<path class="st3" d="M162.3,370.1c-0.3,3.1-0.9,6.2-1.7,9.2s-1.8,6-2.9,8.9c-2.2,5.8-4.9,11.5-8,16.8c-3.1,5.4-6.4,10.7-10.2,15.7
		c-1.8,2.6-3.7,5-5.5,7.5s-3.7,5-5.4,7.6c-3.5,5.1-6.9,10.4-10,15.7c-1.6,2.7-3.1,5.4-4.5,8.2c-1.4,2.8-2.7,5.6-3.9,8.5
		c-2.4,5.8-4.1,11.8-4.7,18c-0.7,6.2,0,12.5,2.4,18.2l0.1,0.1l-0.1,0.1c-3.3,3.3-6.5,6.6-9.6,10c-1.6,1.7-3.1,3.5-4.5,5.2
		c-1.4,1.8-2.9,3.6-4.1,5.6v0.1h-0.1c-3.9,0.8-7.8,2-11.5,3.4s-7.4,3.2-10.9,5.2c-6.9,4.1-13.1,9.4-17.8,16
		c-2.4,3.3-4.3,6.8-5.8,10.6c-1.6,3.7-3.1,7.4-4.7,11.1s-3,7.5-4.5,11.2c-0.7,1.9-1.4,3.7-2.2,5.6c-0.7,1.9-1.4,3.8-1.9,5.7
		c0.5-2,1.2-3.9,1.9-5.8c0.7-1.9,1.4-3.8,2.1-5.6c1.4-3.7,2.9-7.5,4.5-11.2c1.5-3.7,3.1-7.5,4.6-11.1c1.6-3.7,3.5-7.3,5.8-10.6
		c4.7-6.6,10.9-12,17.9-16.1c3.5-2,7.1-3.8,10.9-5.3c3.7-1.4,7.6-2.7,11.6-3.4l-0.1,0.1c1.2-2,2.7-3.8,4.1-5.6s3-3.5,4.5-5.2
		c3.1-3.4,6.3-6.8,9.6-10l-0.1,0.2c-2.5-5.8-3.1-12.2-2.5-18.4c0.7-6.2,2.4-12.3,4.8-18c1.2-2.9,2.5-5.7,3.9-8.5s2.9-5.5,4.5-8.2
		c3.1-5.4,6.6-10.6,10.1-15.7c1.8-2.6,3.6-5.1,5.4-7.6s3.7-5,5.5-7.5c3.7-5,7.1-10.3,10.2-15.7c3.1-5.4,5.8-11,8.1-16.8
		c1.1-2.9,2.2-5.8,2.9-8.8C161.3,376.3,162,373.2,162.3,370.1z"/>
</g>
<g class="st2">
	<path class="st3" d="M30.4,621.1c-0.5-14.9,0.6-29.9,2.7-44.6c1-7.4,2.4-14.7,4.1-22s3.6-14.5,5.9-21.6s5-14.1,8.1-20.9
		c0.8-1.7,1.5-3.4,2.4-5.1l2.5-5c0.9-1.7,1.8-3.3,2.7-4.9l1.4-2.4l1.4-2.4c3.7-6.5,8.1-12.6,12.7-18.4l3.6-4.3
		c1.2-1.4,2.5-2.8,3.8-4.1l1.9-2c0.7-0.7,1.3-1.3,2-2l4-3.9c-10.8,10.3-20.1,22.2-27.7,35l-1.4,2.4l-1.3,2.4
		c-0.9,1.6-1.8,3.3-2.6,4.9l-2.5,5c-0.9,1.6-1.5,3.4-2.3,5.1c-3,6.8-5.6,13.8-7.9,20.9c-2.3,7.1-4.3,14.3-6,21.6
		c-1.6,7.3-3,14.6-4.1,22s-1.9,14.8-2.4,22.2C30.5,606.2,30.2,613.7,30.4,621.1z"/>
</g>
<linearGradient id="SVGID_2_" gradientUnits="userSpaceOnUse" x1="142.3" y1="2392.1001" x2="208.2" y2="2392.1001" gradientTransform="matrix(1 0 0 -1 0 2818)">
	<stop  offset="0" style="stop-color:#FFFFFF"/>
	<stop  offset="0.1413" style="stop-color:#FFFFFF;stop-opacity:0.9435"/>
	<stop  offset="1" style="stop-color:#FFFFFF;stop-opacity:0.6"/>
</linearGradient>
<path class="st4" d="M142.3,479c0,0,0-17.1,1.2-30.2s5.7-22.6,16.2-38.7c10.5-16.2,14.5-30.9,14.5-37.3c0,0,9.6,0.7,15.7,8.8
	c6.2,8.1,13,15.9,18.3,16.2c0,0-3.5,0.7-5.7,4.1c-2.2,3.3-14,26.9-18.5,30.7c-4.5,3.7-7.7,9.2-8,12.6c0,0-12,9.4-18.2,18.9
	C151.5,473.5,142.3,479,142.3,479z"/>
<linearGradient id="SVGID_3_" gradientUnits="userSpaceOnUse" x1="182.4234" y1="2291.6499" x2="198.4562" y2="2291.6499" gradientTransform="matrix(1 0 0 -1 0 2818)">
	<stop  offset="0" style="stop-color:#FFFFFF"/>
	<stop  offset="0.1413" style="stop-color:#FFFFFF;stop-opacity:0.9435"/>
	<stop  offset="1" style="stop-color:#FFFFFF;stop-opacity:0.6"/>
</linearGradient>
<path class="st5" d="M182.4,493.1c0,0-1.2,46.8,13.8,66.5c0,0,5.8-39.5-1.2-49.6C188,499.9,182.4,493.1,182.4,493.1z"/>
<g class="st6">
	<g>
		<text transform="matrix(1 0 0 1 334.3091 586.1629)" class="st3 st7 st8">Luz azul</text>
	</g>
</g>
<g>
	<g>
		
			<linearGradient id="SVGID_4_" gradientUnits="userSpaceOnUse" x1="271.2489" y1="2467.3213" x2="341.053" y2="2488.5627" gradientTransform="matrix(1 0 0 -1 0 2818)">
			<stop  offset="1.800003e-03" style="stop-color:#CEB98E"/>
			<stop  offset="0.161" style="stop-color:#DACAAA;stop-opacity:0.8405"/>
			<stop  offset="0.4075" style="stop-color:#EAE1CF;stop-opacity:0.5935"/>
			<stop  offset="0.6374" style="stop-color:#F6F1E9;stop-opacity:0.3633"/>
			<stop  offset="0.8419" style="stop-color:#FDFBF9;stop-opacity:0.1584"/>
			<stop  offset="1" style="stop-color:#FFFFFF;stop-opacity:0"/>
		</linearGradient>
		<path class="st9" d="M269.1,330.4c7.6,2.9,15.2,5.6,22.8,8.3c7.7,2.6,15.3,5.1,23.1,7.2c3.9,1,7.8,2,11.7,2.7
			c2,0.3,3.9,0.7,5.9,0.8c2,0.1,3.9,0.2,5.8-0.1c0.9-0.2,1.8-0.5,2.4-0.9s0.9-1.2,0.9-2c-0.1-0.9-0.4-1.8-0.8-2.6
			c-0.5-0.9-1-1.7-1.6-2.5c-1.2-1.6-2.6-3.1-4-4.5s-2.8-3-4.2-4.5l4.7,3.9c1.6,1.3,3,2.8,4.4,4.3c0.7,0.8,1.3,1.6,1.8,2.6
			c0.5,0.9,1,1.9,1.2,3.1c0.1,0.6,0,1.2-0.2,1.8c-0.2,0.6-0.7,1.2-1.1,1.6c-1,0.8-2,1.2-3.1,1.4c-2.2,0.5-4.3,0.6-6.4,0.5
			s-4.1-0.2-6.2-0.5c-4.1-0.5-8.1-1.2-12.2-2c-8.1-1.6-15.9-3.6-23.9-5.8c-7.9-2.2-15.7-4.5-23.5-6.9L269.1,330.4z"/>
		<g>
			
				<linearGradient id="SVGID_5_" gradientUnits="userSpaceOnUse" x1="266.3145" y1="2483.5369" x2="336.1186" y2="2504.7786" gradientTransform="matrix(1 0 0 -1 0 2818)">
				<stop  offset="1.800003e-03" style="stop-color:#CEB98E"/>
				<stop  offset="0.161" style="stop-color:#DACAAA;stop-opacity:0.8405"/>
				<stop  offset="0.4075" style="stop-color:#EAE1CF;stop-opacity:0.5935"/>
				<stop  offset="0.6374" style="stop-color:#F6F1E9;stop-opacity:0.3633"/>
				<stop  offset="0.8419" style="stop-color:#FDFBF9;stop-opacity:0.1584"/>
				<stop  offset="1" style="stop-color:#FFFFFF;stop-opacity:0"/>
			</linearGradient>
			<polygon class="st10" points="267.7,340.3 259.1,330.4 272,328 			"/>
		</g>
	</g>
</g>
<g>
	
		<linearGradient id="SVGID_6_" gradientUnits="userSpaceOnUse" x1="2006.8641" y1="-2567.5603" x2="2086.6223" y2="-2567.5603" gradientTransform="matrix(0.5976 -0.8017 0.8017 0.5976 916.0407 3806.5718)">
		<stop  offset="0" style="stop-color:#FFFFFF;stop-opacity:0"/>
		<stop  offset="0.9982" style="stop-color:#CEB98E"/>
	</linearGradient>
	<path class="st11" d="M86,585.8c12.4,29,9.6,63.7-10.7,91"/>
	<g>
		<polygon class="st12" points="80.5,588.9 82.7,577 91.8,584.6 		"/>
	</g>
</g>
<g>
	
		<linearGradient id="SVGID_7_" gradientUnits="userSpaceOnUse" x1="65.4913" y1="94.01" x2="65.4913" y2="173.7129" gradientTransform="matrix(1 0 0 -1 0 928)">
		<stop  offset="0" style="stop-color:#FFFFFF;stop-opacity:0"/>
		<stop  offset="0.1413" style="stop-color:#FFFFFF;stop-opacity:0.1413"/>
		<stop  offset="1" style="stop-color:#FFFFFF"/>
	</linearGradient>
	<path class="st13" d="M85.8,834L85.8,834c0,0,0.8-10.8-1.6-17.2c-2.4-6.5-5-6.9-8.8-10.4c-3.8-3.4-7.8-6.6-7.7-9.3
		c0.1-2.7,0.9-5.2,0.9-7.2c0.1-2,1.2-2.6,3.4-2.6c2.2,0,4.8,1.1,6.3,0.3s0.4-3,0.8-3.7c0.4-0.7,1.5-0.9,1.4-1.2
		c-0.2-0.4-0.7-1-1.5-1c0,0,1.7-1,1.7-1.5c0,0-0.5-1.3-1.2-1.9c0,0,2.8-1.3,2.6-2.2s-0.9-1.6-1.8-2.6c-0.9-1-2.4-2.4-2.5-3.3
		c-0.1-0.9,0.3-1.7,0.3-2.5c0-0.8,0.2-1.5-0.4-2.8s-0.6-1.3-0.6-1.3s-1.3-3-2.2-4.2c-0.8-1.2-3.3-5.2-12.1-5.1c0,0-7.1-1-11.6,5.1
		s-2.8,12.5-1.3,15c1.5,2.5,5.6,5.5,4.7,12.1c-0.9,6.6-1.9,8.8-5.9,17.8c-7,15.7-2.3,28-1.5,29.6"/>
	
		<linearGradient id="SVGID_8_" gradientUnits="userSpaceOnUse" x1="65.4913" y1="93.76" x2="65.4913" y2="173.9629" gradientTransform="matrix(1 0 0 -1 0 928)">
		<stop  offset="0" style="stop-color:#FFFFFF;stop-opacity:0"/>
		<stop  offset="1" style="stop-color:#FFFFFF"/>
	</linearGradient>
	<path class="st14" d="M85.8,834L85.8,834c0,0,0.8-10.8-1.6-17.2c-2.4-6.5-5-6.9-8.8-10.4c-3.8-3.4-7.8-6.6-7.7-9.3
		c0.1-2.7,0.9-5.2,0.9-7.2c0.1-2,1.2-2.6,3.4-2.6c2.2,0,4.8,1.1,6.3,0.3s0.4-3,0.8-3.7c0.4-0.7,1.5-0.9,1.4-1.2
		c-0.2-0.4-0.7-1-1.5-1c0,0,1.7-1,1.7-1.5c0,0-0.5-1.3-1.2-1.9c0,0,2.8-1.3,2.6-2.2s-0.9-1.6-1.8-2.6c-0.9-1-2.4-2.4-2.5-3.3
		c-0.1-0.9,0.3-1.7,0.3-2.5c0-0.8,0.2-1.5-0.4-2.8s-0.6-1.3-0.6-1.3s-1.3-3-2.2-4.2c-0.8-1.2-3.3-5.2-12.1-5.1c0,0-7.1-1-11.6,5.1
		s-2.8,12.5-1.3,15c1.5,2.5,5.6,5.5,4.7,12.1c-0.9,6.6-1.9,8.8-5.9,17.8c-7,15.7-2.3,28-1.5,29.6"/>
	<g>
		<path class="st15" d="M60.2,781.2c0.1,3.7-0.4,7.4-1.1,11.1c-0.7,3.7-1.5,7.3-2.6,10.9l-1.7,5.3c-0.5,1.7-1,3.5-1.3,5.2
			c-0.7,3.5-0.9,7.1-0.5,10.6c0.3,3.5,1.2,7.1,2.2,10.6c0.5,1.8,1,3.5,1.5,5.3c0.5,1.8,1,3.5,1.5,5.4c0.9,3.7,1.4,7.4,1.3,11.2
			c-0.1,1.9-0.3,3.8-0.8,5.6c-0.5,1.8-1.2,3.6-2.4,5.1c0.5-0.8,0.8-1.7,1-2.6c0.3-0.9,0.4-1.8,0.5-2.7c0.2-1.8,0.3-3.6,0.2-5.4
			c-0.2-3.6-1-7.2-2.1-10.6c-2.2-6.9-5-13.9-5.9-21.6c-0.3-3.8-0.1-7.7,0.7-11.5c0.8-3.7,2.2-7.3,3.5-10.7c1.2-3.4,2.4-6.9,3.4-10.5
			C58.8,788.4,59.6,784.9,60.2,781.2z"/>
	</g>
</g>
<g>
	
		<linearGradient id="SVGID_9_" gradientUnits="userSpaceOnUse" x1="138.393" y1="94.01" x2="138.393" y2="171.5415" gradientTransform="matrix(1 0 0 -1 0 928)">
		<stop  offset="0" style="stop-color:#FFFFFF;stop-opacity:0"/>
		<stop  offset="0.1413" style="stop-color:#FFFFFF;stop-opacity:0.1413"/>
		<stop  offset="1" style="stop-color:#FFFFFF"/>
	</linearGradient>
	<path class="st16" d="M151.7,834h0.1c0,0,1.9-11-2.9-19.5c-4.8-8.6-11.5-8.6-12.1-16.8c-0.2-2.7,3.7-3.8,4.8-5.4
		c1.1-1.6,2.4-1.4,4.3-0.2c1.8,1.2,3.3,3.6,5.1,3.7s2-2.3,2.7-2.6c0.7-0.3,1.8,0.1,1.9-0.2c0.1-0.4,0-1.2-0.7-1.7
		c0,0,1.9,0.1,2.2-0.3c0,0,0.3-1.3,0.1-2.2c0,0,3,0.5,3.4-0.4c0.4-0.9,0.1-1.8,0-3.2c-0.2-1.3-0.7-3.3-0.3-4.1s1.2-1.3,1.7-1.9
		s1-1.2,1.2-2.6s0.2-1.4,0.2-1.4s0.6-3.2,0.6-4.7c0-1.4,0.1-6.2-7.2-11c0,0-5.3-4.8-12.5-2.3s-9.4,8.8-9.5,11.8s1.6,7.7-2.9,12.7
		c0,0-11.6,10.3-14.9,17.9c-3.3,7.6-4.6,13.2-3.6,18.6c1,5.4,2.3,12.3,2.3,15.8"/>
	
		<linearGradient id="SVGID_10_" gradientUnits="userSpaceOnUse" x1="138.393" y1="93.76" x2="138.393" y2="171.7915" gradientTransform="matrix(1 0 0 -1 0 928)">
		<stop  offset="0" style="stop-color:#FFFFFF;stop-opacity:0"/>
		<stop  offset="1" style="stop-color:#FFFFFF"/>
	</linearGradient>
	<path class="st17" d="M151.7,834h0.1c0,0,1.9-11-2.9-19.5c-4.8-8.6-11.5-8.6-12.1-16.8c-0.2-2.7,3.7-3.8,4.8-5.4
		c1.1-1.6,2.4-1.4,4.3-0.2c1.8,1.2,3.3,3.6,5.1,3.7s2-2.3,2.7-2.6c0.7-0.3,1.8,0.1,1.9-0.2c0.1-0.4,0-1.2-0.7-1.7
		c0,0,1.9,0.1,2.2-0.3c0,0,0.3-1.3,0.1-2.2c0,0,3,0.5,3.4-0.4c0.4-0.9,0.1-1.8,0-3.2c-0.2-1.3-0.7-3.3-0.3-4.1s1.2-1.3,1.7-1.9
		s1-1.2,1.2-2.6s0.2-1.4,0.2-1.4s0.6-3.2,0.6-4.7c0-1.4,0.1-6.2-7.2-11c0,0-5.3-4.8-12.5-2.3s-9.4,8.8-9.5,11.8s1.6,7.7-2.9,12.7
		c0,0-11.6,10.3-14.9,17.9c-3.3,7.6-4.6,13.2-3.6,18.6c1,5.4,2.3,12.3,2.3,15.8"/>
	<g>
		<path class="st15" d="M139.8,779.9c0,2-0.7,4.1-1.8,5.8c-1.1,1.8-2.7,3.2-4.5,4.4l-2.6,1.5l-1.1,0.8l-1.1,0.9
			c-1.4,1.3-2.6,2.8-3.7,4.5c-1.1,1.6-1.8,3.4-2.6,5.2c-0.6,1.8-1.2,3.7-1.5,5.6c-0.7,3.8-0.7,7.7-0.1,11.6
			c0.5,3.9,1.5,7.7,2.6,11.5c1.1,3.8,2.6,7.6,3.5,11.6c0.2,1,0.5,2,0.6,3.1l0.2,1.5c0.1,0.5,0.1,1,0.1,1.6c0.1,1,0.1,2.1,0,3.1
			c0,1-0.2,2.1-0.3,3.1c-0.6,4.1-1.8,8-3.2,11.8c0.9-4,1.6-7.9,1.8-11.9c0.2-4-0.3-7.9-1.4-11.6c-1.1-3.8-2.7-7.5-4-11.4
			c-1.3-3.9-2.3-7.9-2.9-12c-0.5-4.1-0.5-8.4,0.3-12.5c0.4-2.1,1.1-4.1,1.8-6c0.9-1.9,1.8-3.8,3.1-5.5c1.2-1.7,2.6-3.3,4.3-4.6
			l1.3-0.9c0.4-0.3,0.9-0.6,1.4-0.8l1.4-0.7l1.3-0.6c1.7-0.9,3.3-2.1,4.5-3.6C138.6,783.7,139.5,781.9,139.8,779.9z"/>
	</g>
</g>
<line class="st18" x1="134.7" y1="790.2" x2="174.8" y2="750.1"/>
<g>
	<text transform="matrix(1 0 0 1 166.7562 745.983)" class="st19 st20 st21">45°</text>
</g>
<line class="st18" x1="309.6" y1="277.7" x2="349.7" y2="237.6"/>
<g>
	<text transform="matrix(1 0 0 1 341.6265 233.4235)" class="st22 st20 st21">45°</text>
</g>
<linearGradient id="SVGID_11_" gradientUnits="userSpaceOnUse" x1="324.3944" y1="129.3199" x2="324.3944" y2="143.84" gradientTransform="matrix(1 0 0 -1 0 928)">
	<stop  offset="0" style="stop-color:#FFFFFF;stop-opacity:0"/>
	<stop  offset="0.1413" style="stop-color:#FFFFFF;stop-opacity:0.1413"/>
	<stop  offset="1" style="stop-color:#FFFFFF"/>
</linearGradient>
<path class="st23" d="M328.6,791.6l-0.2-0.4c-0.6-1-1.4-1.7-1.6-2.4c0,0-1.6-0.9-2.2-1.4c0,0-3.3-1.3-4.6-3.2c0,0-0.6,5.6-0.3,7.8
	s0.1,6.7,0.1,6.7s4.8,0,6.4,0c0.3-1.4,2.9-2.5,2.9-4.7C329.1,793,328.9,792.2,328.6,791.6z"/>
<linearGradient id="SVGID_12_" gradientUnits="userSpaceOnUse" x1="304.8354" y1="120.77" x2="304.8354" y2="165.77" gradientTransform="matrix(1 0 0 -1 0 928)">
	<stop  offset="0" style="stop-color:#FFFFFF;stop-opacity:0"/>
	<stop  offset="0.1413" style="stop-color:#FFFFFF;stop-opacity:0.1413"/>
	<stop  offset="1" style="stop-color:#FFFFFF"/>
</linearGradient>
<path class="st24" d="M294.5,789.4c0,0,0.3-3.5,0.3-4.4c0-1,0-2,0.6-2.6c0.6-0.7,0.2-3.2,1.1-4.2c1-1-0.2-0.8,0.5-2.2
	c0.6-1.5,1.7-1.7,2-3c0.3-1.3,0.5-2.8,4.7-6.4s5.5-4.3,6.6-4.3c1.1,0,2.6,0.1,3.1,2.9s1,2.6,1,4.7s-0.4,5.7-0.4,5.7s1.7,2.1,1.7,3.4
	v8.9c0,0,0.9,4.5-1.8,7.2c-2.6,2.7-4.9,5.6-8.1,5.6c0,0-4.8,6.6-8.7,6.6s-2.9-3.8-2.9-3.8S293.1,792.7,294.5,789.4z"/>
<g class="st25">
	
		<linearGradient id="SVGID_13_" gradientUnits="userSpaceOnUse" x1="330.2313" y1="122.053" x2="330.2313" y2="166.4769" gradientTransform="matrix(1 0 0 -1 0 928)">
		<stop  offset="0" style="stop-color:#FFFFFF;stop-opacity:0"/>
		<stop  offset="0.1413" style="stop-color:#FFFFFF;stop-opacity:0.1413"/>
		<stop  offset="1" style="stop-color:#FFFFFF"/>
	</linearGradient>
	<path class="st26" d="M319.2,774.3c-0.1-0.7-1.2-5.3-0.6-7.7c0.6-2.5,1.5-6.8,6.9-4.4c5.4,2.4,3.9,2.9,5.6,4.5
		c1.6,1.7,2.2,2.4,4.7,5.8c2.5,3.4,3.4,5,3.6,8.9s1.6,0.9,1.6,5c0,4.1,0.8,5.9,0.8,7.9s-0.7,4.2-0.4,4.9c0.3,0.7-0.6,3.7,0.2,4.4
		c0.7,0.7,0.9,3-2.1,2.1c0,0-6.3-1.7-8.6-5.3c-1.7,0.4-3.8,0.7-4.6-0.4c-0.3-0.4-0.4-0.8-0.3-1.1c0.3-1.4,2.9-2.5,2.9-4.7
		c0-1-0.2-1.7-0.6-2.4c-0.1-0.2-0.1-0.3-0.2-0.4c-0.6-1-1.4-1.7-1.6-2.4c0,0-1.6-0.9-2.2-1.4c0,0-3.3-1.3-4.6-3.2
		c-0.2-0.2-0.3-0.5-0.4-0.7c-0.9-2.3-0.9-4.6-0.5-7.2c0.2-1.5,0.3-1.9,0.4-2L319.2,774.3L319.2,774.3z"/>
</g>
<linearGradient id="SVGID_14_" gradientUnits="userSpaceOnUse" x1="317.535" y1="150.69" x2="317.535" y2="177.2801" gradientTransform="matrix(1 0 0 -1 0 928)">
	<stop  offset="0" style="stop-color:#FFFFFF;stop-opacity:0"/>
	<stop  offset="0.1413" style="stop-color:#FFFFFF;stop-opacity:0.1413"/>
	<stop  offset="1" style="stop-color:#FFFFFF"/>
</linearGradient>
<path class="st27" d="M318,750.7c0,0,0.8,5,0.3,8.3c-0.5,3.3-0.5,7.1,0.1,12.2l3.6,2.7l-2.8,3.4l-2.7-2.4l-2.4,2.4l-1.1-3
	c0,0,2.2-1.3,2.2-4.3c0-3-0.3-6.6-0.3-10.9c0-3-0.2-5.8-0.2-8.3"/>
<linearGradient id="SVGID_15_" gradientUnits="userSpaceOnUse" x1="324.3944" y1="129.3199" x2="324.3944" y2="143.84" gradientTransform="matrix(1 0 0 -1 0 928)">
	<stop  offset="0" style="stop-color:#FFFFFF;stop-opacity:0"/>
	<stop  offset="0.1413" style="stop-color:#FFFFFF;stop-opacity:0.1413"/>
	<stop  offset="1" style="stop-color:#FFFFFF"/>
</linearGradient>
<path class="st28" d="M328.6,791.6l-0.2-0.4c-0.6-1-1.4-1.7-1.6-2.4c0,0-1.6-0.9-2.2-1.4c0,0-3.3-1.3-4.6-3.2c0,0-0.6,5.6-0.3,7.8
	s0.1,6.7,0.1,6.7s4.8,0,6.4,0c0.3-1.4,2.9-2.5,2.9-4.7C329.1,793,328.9,792.2,328.6,791.6z"/>
<linearGradient id="SVGID_16_" gradientUnits="userSpaceOnUse" x1="304.8354" y1="120.52" x2="304.8354" y2="166.02" gradientTransform="matrix(1 0 0 -1 0 928)">
	<stop  offset="0" style="stop-color:#FFFFFF;stop-opacity:0"/>
	<stop  offset="1" style="stop-color:#FFFFFF"/>
</linearGradient>
<path class="st29" d="M294.5,789.4c0,0,0.3-3.5,0.3-4.4c0-1,0-2,0.6-2.6c0.6-0.7,0.2-3.2,1.1-4.2c1-1-0.2-0.8,0.5-2.2
	c0.6-1.5,1.7-1.7,2-3c0.3-1.3,0.5-2.8,4.7-6.4s5.5-4.3,6.6-4.3c1.1,0,2.6,0.1,3.1,2.9s1,2.6,1,4.7s-0.4,5.7-0.4,5.7s1.7,2.1,1.7,3.4
	v8.9c0,0,0.9,4.5-1.8,7.2c-2.6,2.7-4.9,5.6-8.1,5.6c0,0-4.8,6.6-8.7,6.6s-2.9-3.8-2.9-3.8S293.1,792.7,294.5,789.4z"/>
<g class="st30">
	
		<linearGradient id="SVGID_17_" gradientUnits="userSpaceOnUse" x1="330.2313" y1="121.803" x2="330.2313" y2="166.7269" gradientTransform="matrix(1 0 0 -1 0 928)">
		<stop  offset="0" style="stop-color:#FFFFFF;stop-opacity:0"/>
		<stop  offset="1" style="stop-color:#FFFFFF"/>
	</linearGradient>
	<path class="st31" d="M319.2,774.3c-0.1-0.7-1.2-5.3-0.6-7.7c0.6-2.5,1.5-6.8,6.9-4.4c5.4,2.4,3.9,2.9,5.6,4.5
		c1.6,1.7,2.2,2.4,4.7,5.8c2.5,3.4,3.4,5,3.6,8.9s1.6,0.9,1.6,5c0,4.1,0.8,5.9,0.8,7.9s-0.7,4.2-0.4,4.9c0.3,0.7-0.6,3.7,0.2,4.4
		c0.7,0.7,0.9,3-2.1,2.1c0,0-6.3-1.7-8.6-5.3c-1.7,0.4-3.8,0.7-4.6-0.4c-0.3-0.4-0.4-0.8-0.3-1.1c0.3-1.4,2.9-2.5,2.9-4.7
		c0-1-0.2-1.7-0.6-2.4c-0.1-0.2-0.1-0.3-0.2-0.4c-0.6-1-1.4-1.7-1.6-2.4c0,0-1.6-0.9-2.2-1.4c0,0-3.3-1.3-4.6-3.2
		c-0.2-0.2-0.3-0.5-0.4-0.7c-0.9-2.3-0.9-4.6-0.5-7.2c0.2-1.5,0.3-1.9,0.4-2L319.2,774.3L319.2,774.3z"/>
</g>
<linearGradient id="SVGID_18_" gradientUnits="userSpaceOnUse" x1="317.535" y1="150.69" x2="317.535" y2="177.2801" gradientTransform="matrix(1 0 0 -1 0 928)">
	<stop  offset="0" style="stop-color:#FFFFFF;stop-opacity:0"/>
	<stop  offset="0.1413" style="stop-color:#FFFFFF;stop-opacity:0.1413"/>
	<stop  offset="1" style="stop-color:#FFFFFF"/>
</linearGradient>
<path class="st32" d="M318,750.7c0,0,0.8,5,0.3,8.3c-0.5,3.3-0.5,7.1,0.1,12.2l3.6,2.7l-2.8,3.4l-2.7-2.4l-2.4,2.4l-1.1-3
	c0,0,2.2-1.3,2.2-4.3c0-3-0.3-6.6-0.3-10.9c0-3-0.2-5.8-0.2-8.3"/>
<rect x="292.7" y="746.5" class="st33" width="50.3" height="25.8"/>
<line class="st18" x1="291.5" y1="772.8" x2="345.8" y2="772.8"/>
<g>
	<text transform="matrix(1 0 0 1 304.8211 761.4299)" class="st19 st20 st21">30%</text>
</g>
<linearGradient id="SVGID_19_" gradientUnits="userSpaceOnUse" x1="76.296" y1="-613.87" x2="101.2175" y2="-613.87" gradientTransform="matrix(1 0 0 1 0 1150)">
	<stop  offset="0" style="stop-color:#FFFFFF"/>
	<stop  offset="1" style="stop-color:#FFFFFF;stop-opacity:0"/>
</linearGradient>
<path class="st34" d="M101.2,543.3c0,0-16.3,0-24.9-9.1c0,0,9.9,4.4,12.3,2.4c0,0,0.1-3.7-0.9-7.7c2.9,5.5,5.3,8.9,9.1,11.3
	L101.2,543.3z"/>
<line class="st35" x1="96.2" y1="541.7" x2="109.8" y2="541.7"/>
<g id="light" class="animate-light">
	
		<linearGradient id="SVGID_20_" gradientUnits="userSpaceOnUse" x1="277.8537" y1="2400.5376" x2="415.4073" y2="2232.4551" gradientTransform="matrix(1 0 0 -1 0 2818)">
		<stop  offset="0" style="stop-color:#FFFFFF;stop-opacity:0"/>
		<stop  offset="0.1497" style="stop-color:#FBFDFF;stop-opacity:8.980000e-02"/>
		<stop  offset="0.2828" style="stop-color:#F1F8FF;stop-opacity:0.1697"/>
		<stop  offset="0.4096" style="stop-color:#DEEFFF;stop-opacity:0.2458"/>
		<stop  offset="0.5326" style="stop-color:#C5E2FF;stop-opacity:0.3196"/>
		<stop  offset="0.6529" style="stop-color:#A4D1FF;stop-opacity:0.3917"/>
		<stop  offset="0.771" style="stop-color:#7BBDFF;stop-opacity:0.4626"/>
		<stop  offset="0.8856" style="stop-color:#4CA6FF;stop-opacity:0.5314"/>
		<stop  offset="0.9981" style="stop-color:#168AFF;stop-opacity:0.5988"/>
		<stop  offset="1" style="stop-color:#158AFF;stop-opacity:0.6"/>
	</linearGradient>
	<path class="st36" d="M317.7,382.1c0.7-1.3-0.7-3.9,0-5.9c4.5-11.1,6.8-22.4,7.7-33.9l76,245.5l-27.3,7.4l-5.9,0.9l-42,13.7
		L240,473.5l0,0c2.4-2,5.4-2.9,7.6-5.6c2.6-3.3,10.5,1.3,13.1-2c2-2.6,3.9-7.9,7.9-7.9c-0.7-2,1.3-2.6,2-3.3
		c1.3-0.7,2.6-0.7,3.3-1.3c1.3-4.6-0.7-12.5,3.9-13.1c6.6,0,16.4,3.9,18.4-3.9c2.6-11.1-1.3-22.3,2.6-32.1c0.7-2,6.6-6.6,6.6-11.1
		L317.7,382.1z"/>
	<g class="st6">
		
			<linearGradient id="SVGID_21_" gradientUnits="userSpaceOnUse" x1="257.2029" y1="2355.666" x2="259.0424" y2="2350.6262" gradientTransform="matrix(1 0 0 -1 0 2818)">
			<stop  offset="0" style="stop-color:#FFFFFF;stop-opacity:0"/>
			<stop  offset="0.1043" style="stop-color:#FAFCFF;stop-opacity:6.260000e-02"/>
			<stop  offset="0.2346" style="stop-color:#EAF5FF;stop-opacity:0.1408"/>
			<stop  offset="0.3789" style="stop-color:#D1E8FF;stop-opacity:0.2273"/>
			<stop  offset="0.5333" style="stop-color:#ADD6FF;stop-opacity:0.32"/>
			<stop  offset="0.6957" style="stop-color:#7FBFFF;stop-opacity:0.4174"/>
			<stop  offset="0.8622" style="stop-color:#48A4FF;stop-opacity:0.5173"/>
			<stop  offset="1" style="stop-color:#158AFF;stop-opacity:0.6"/>
		</linearGradient>
		<path class="st37" d="M251.7,466.4c0,0,6.2,1.8,8.7-0.1c2.4-1.9,2.5-7.5,2.5-7.5S260.2,465.9,251.7,466.4z"/>
		
			<linearGradient id="SVGID_22_" gradientUnits="userSpaceOnUse" x1="226.1563" y1="2352.8572" x2="231.3045" y2="2338.7537" gradientTransform="matrix(1 0 0 -1 0 2818)">
			<stop  offset="0" style="stop-color:#FFFFFF;stop-opacity:0"/>
			<stop  offset="0.1892" style="stop-color:#FCFEFF;stop-opacity:0.1135"/>
			<stop  offset="0.3264" style="stop-color:#F3F9FF;stop-opacity:0.1958"/>
			<stop  offset="0.4472" style="stop-color:#E3F1FF;stop-opacity:0.2683"/>
			<stop  offset="0.5585" style="stop-color:#CDE6FF;stop-opacity:0.3351"/>
			<stop  offset="0.6634" style="stop-color:#B0D7FF;stop-opacity:0.3981"/>
			<stop  offset="0.7635" style="stop-color:#8CC6FF;stop-opacity:0.4581"/>
			<stop  offset="0.8598" style="stop-color:#62B0FF;stop-opacity:0.5159"/>
			<stop  offset="0.9507" style="stop-color:#3299FF;stop-opacity:0.5704"/>
			<stop  offset="1" style="stop-color:#158AFF;stop-opacity:0.6"/>
		</linearGradient>
		<path class="st38" d="M209.3,467.2c0,0,9.5,8,18.1,8.9s8.7,1.7,18.1-6.2C245.4,469.9,230.9,479,209.3,467.2z"/>
		
			<linearGradient id="SVGID_23_" gradientUnits="userSpaceOnUse" x1="268.9309" y1="2370.616" x2="272.6117" y2="2360.532" gradientTransform="matrix(1 0 0 -1 0 2818)">
			<stop  offset="0" style="stop-color:#FFFFFF;stop-opacity:0"/>
			<stop  offset="0.1892" style="stop-color:#FCFEFF;stop-opacity:0.1135"/>
			<stop  offset="0.3264" style="stop-color:#F3F9FF;stop-opacity:0.1958"/>
			<stop  offset="0.4472" style="stop-color:#E3F1FF;stop-opacity:0.2683"/>
			<stop  offset="0.5585" style="stop-color:#CDE6FF;stop-opacity:0.3351"/>
			<stop  offset="0.6634" style="stop-color:#B0D7FF;stop-opacity:0.3981"/>
			<stop  offset="0.7635" style="stop-color:#8CC6FF;stop-opacity:0.4581"/>
			<stop  offset="0.8598" style="stop-color:#62B0FF;stop-opacity:0.5159"/>
			<stop  offset="0.9507" style="stop-color:#3299FF;stop-opacity:0.5704"/>
			<stop  offset="1" style="stop-color:#158AFF;stop-opacity:0.6"/>
		</linearGradient>
		<path class="st39" d="M264.7,458.8c0,0,7.3,0.1,8.1-6c0.7-6,2.6-10.7,2.6-10.7s-3.6,4.1-4.4,10S264.7,458.8,264.7,458.8z"/>
		
			<linearGradient id="SVGID_24_" gradientUnits="userSpaceOnUse" x1="287.4151" y1="2398.9617" x2="296.0979" y2="2375.175" gradientTransform="matrix(1 0 0 -1 0 2818)">
			<stop  offset="0" style="stop-color:#FFFFFF;stop-opacity:0"/>
			<stop  offset="0.1892" style="stop-color:#FCFEFF;stop-opacity:0.1135"/>
			<stop  offset="0.3264" style="stop-color:#F3F9FF;stop-opacity:0.1958"/>
			<stop  offset="0.4472" style="stop-color:#E3F1FF;stop-opacity:0.2683"/>
			<stop  offset="0.5585" style="stop-color:#CDE6FF;stop-opacity:0.3351"/>
			<stop  offset="0.6634" style="stop-color:#B0D7FF;stop-opacity:0.3981"/>
			<stop  offset="0.7635" style="stop-color:#8CC6FF;stop-opacity:0.4581"/>
			<stop  offset="0.8598" style="stop-color:#62B0FF;stop-opacity:0.5159"/>
			<stop  offset="0.9507" style="stop-color:#3299FF;stop-opacity:0.5704"/>
			<stop  offset="1" style="stop-color:#158AFF;stop-opacity:0.6"/>
		</linearGradient>
		<path class="st40" d="M281.5,441.1c0,0,6.3,2.6,11,1c4.7-1.5,4.7-7.5,4.5-17.2c-0.2-9.8,0.5-16.5,0.5-16.5s-2.9,9.1-3.1,18.2
			C294.3,435.8,295,440.2,281.5,441.1z"/>
		
			<linearGradient id="SVGID_25_" gradientUnits="userSpaceOnUse" x1="300.8" y1="2422.2288" x2="303.9493" y2="2413.6011" gradientTransform="matrix(1 0 0 -1 0 2818)">
			<stop  offset="0" style="stop-color:#FFFFFF;stop-opacity:0"/>
			<stop  offset="0.1892" style="stop-color:#FCFEFF;stop-opacity:0.1135"/>
			<stop  offset="0.3264" style="stop-color:#F3F9FF;stop-opacity:0.1958"/>
			<stop  offset="0.4472" style="stop-color:#E3F1FF;stop-opacity:0.2683"/>
			<stop  offset="0.5585" style="stop-color:#CDE6FF;stop-opacity:0.3351"/>
			<stop  offset="0.6634" style="stop-color:#B0D7FF;stop-opacity:0.3981"/>
			<stop  offset="0.7635" style="stop-color:#8CC6FF;stop-opacity:0.4581"/>
			<stop  offset="0.8598" style="stop-color:#62B0FF;stop-opacity:0.5159"/>
			<stop  offset="0.9507" style="stop-color:#3299FF;stop-opacity:0.5704"/>
			<stop  offset="1" style="stop-color:#158AFF;stop-opacity:0.6"/>
		</linearGradient>
		<path class="st41" d="M298.1,405.8c0,0,8.3-4,7.5-14.3C305.7,391.5,304,399.5,298.1,405.8z"/>
		
			<linearGradient id="SVGID_26_" gradientUnits="userSpaceOnUse" x1="468.3841" y1="2375.9685" x2="469.7302" y2="2372.281" gradientTransform="matrix(0.9932 -0.1168 -0.1168 -0.9932 63.6217 2865.4893)">
			<stop  offset="0" style="stop-color:#FFFFFF;stop-opacity:0"/>
			<stop  offset="0.1892" style="stop-color:#FCFEFF;stop-opacity:0.1135"/>
			<stop  offset="0.3264" style="stop-color:#F3F9FF;stop-opacity:0.1958"/>
			<stop  offset="0.4472" style="stop-color:#E3F1FF;stop-opacity:0.2683"/>
			<stop  offset="0.5585" style="stop-color:#CDE6FF;stop-opacity:0.3351"/>
			<stop  offset="0.6634" style="stop-color:#B0D7FF;stop-opacity:0.3981"/>
			<stop  offset="0.7635" style="stop-color:#8CC6FF;stop-opacity:0.4581"/>
			<stop  offset="0.8598" style="stop-color:#62B0FF;stop-opacity:0.5159"/>
			<stop  offset="0.9507" style="stop-color:#3299FF;stop-opacity:0.5704"/>
			<stop  offset="1" style="stop-color:#158AFF;stop-opacity:0.6"/>
		</linearGradient>
		<path class="st42" d="M264,443.4c0,0-0.7,8.8-24.8,16.3"/>
		
			<linearGradient id="SVGID_27_" gradientUnits="userSpaceOnUse" x1="1127.3461" y1="2286.439" x2="1129.0809" y2="2281.6865" gradientTransform="matrix(0.894 -0.4481 -0.4481 -0.894 295.0189 2974.7422)">
			<stop  offset="0" style="stop-color:#FFFFFF;stop-opacity:0"/>
			<stop  offset="0.1892" style="stop-color:#FCFEFF;stop-opacity:0.1135"/>
			<stop  offset="0.3264" style="stop-color:#F3F9FF;stop-opacity:0.1958"/>
			<stop  offset="0.4472" style="stop-color:#E3F1FF;stop-opacity:0.2683"/>
			<stop  offset="0.5585" style="stop-color:#CDE6FF;stop-opacity:0.3351"/>
			<stop  offset="0.6634" style="stop-color:#B0D7FF;stop-opacity:0.3981"/>
			<stop  offset="0.7635" style="stop-color:#8CC6FF;stop-opacity:0.4581"/>
			<stop  offset="0.8598" style="stop-color:#62B0FF;stop-opacity:0.5159"/>
			<stop  offset="0.9507" style="stop-color:#3299FF;stop-opacity:0.5704"/>
			<stop  offset="1" style="stop-color:#158AFF;stop-opacity:0.6"/>
		</linearGradient>
		<path class="st43" d="M290.4,410.8c0,0,3,10.9-22.8,30.7"/>
	</g>
</g>
<g>
	<g>
		<text transform="matrix(1 0 0 1 34.3683 701.8739)" class="st45"><tspan x="0" y="0" class="st3 st20 st46">Curvatura de la </tspan><tspan x="0" y="19.2" class="st3 st20 st46">columna vertebral</tspan></text>
	</g>
</g>
<g>
	<g>
		<text transform="matrix(1 0 0 1 199.6268 242.7908)" class="st45"><tspan x="0" y="0" class="st3 st20 st46">Dolor de cabeza </tspan><tspan x="0" y="19.2" class="st3 st20 st46">crónico</tspan></text>
	</g>
</g>
<g>
	<g>
		<text transform="matrix(1 0 0 1 120.2578 540.641)" class="st45"><tspan x="0" y="0" class="st3 st20 st46">Daño en </tspan><tspan x="0" y="19.2" class="st3 st20 st46">el nervio</tspan></text>
	</g>
</g>
<g class="st6">
	<g>
		<text transform="matrix(1 0 0 1 329.5002 282.6543)" class="st45"><tspan x="0" y="0" class="st3 st7 st21">Dificultad </tspan><tspan x="0" y="16.8" class="st3 st7 st21">para girar</tspan><tspan x="0" y="33.6" class="st3 st7 st21">la cabeza</tspan></text>
	</g>
</g>
<g class="st6">
	<g>
		<text transform="matrix(1 0 0 1 39.8719 430.1202)" class="st45"><tspan x="0" y="0" class="st3 st7 st21">Tensión</tspan><tspan x="-8.4" y="16.8" class="st3 st7 st21">muscular</tspan></text>
	</g>
</g>
<g class="st6">
	<g>
		<text transform="matrix(1 0 0 1 207.8632 551.8102)" class="st45"><tspan x="0" y="0" class="st3 st7 st21">Debilidad </tspan><tspan x="0" y="16.8" class="st3 st7 st21">muscular</tspan></text>
	</g>
</g>
<g>
	<g>
		<text transform="matrix(1 0 0 1 319.0834 427.0469)" class="st45"><tspan x="0" y="0" class="st3 st20 st46">Visión</tspan><tspan x="0" y="19.2" class="st3 st20 st46">borrosa</tspan></text>
	</g>
</g>
<g>
	<text transform="matrix(1 0 0 1 293.2291 845.7363)" class="st3 st20 st46">Pérdida de</text>
	<text transform="matrix(1 0 0 1 293.2291 864.9362)" class="st3 st20 st46">capacidad</text>
	<text transform="matrix(1 0 0 1 293.2291 884.1363)" class="st3 st20 st46">pulmonar</text>
</g>

<g class="st6">
	<text transform="matrix(1 0 0 1 38.6185 893.0857)" class="st45"><tspan x="0" y="0" class="st3 st7 st21">Curvatura</tspan><tspan x="0" y="16.8" class="st3 st7 st21">normal</tspan></text>
</g>
<g class="st6">
	<text transform="matrix(1 0 0 1 122.867 893.0857)" class="st45"><tspan x="0" y="0" class="st3 st7 st21">Curvatura</tspan><tspan x="0" y="16.8" class="st3 st7 st21">extrema</tspan></text>
</g>
<g>
	<text transform="matrix(1 0 0 1 64.3018 356.3048)" class="st45"><tspan x="0" y="0" class="st3 st20 st46">Tensión en </tspan><tspan x="0" y="19.2" class="st3 st20 st46">la columna </tspan><tspan x="0" y="38.4" class="st3 st20 st46">vertebral</tspan></text>
</g>
</svg>
